<svg width="20" height="30" viewBox="0 0 20 30" fill="none" xmlns="http://www.w3.org/2000/svg">
<path d="M10 0C4.48587 0 0 4.48402 0 9.99515V20.0054C0 25.5164 4.48587 30 10 30C15.5141 30 20 25.5166 20 20.0054V9.99515C20 4.48402 15.514 0 10 0ZM18.8889 20.0054C18.8889 24.9039 14.9013 28.8889 10 28.8889C5.09866 28.8889 1.1111 24.9039 1.1111 20.0054V9.99515C1.1111 5.09667 5.09866 1.1111 10 1.1111C14.9013 1.1111 18.8889 5.09652 18.8889 9.99515V20.0054Z" fill="white"/>
<path d="M10.0001 3.33325C9.69326 3.33325 9.44446 3.58176 9.44446 3.88887V8.91981C9.44446 9.22692 9.69326 9.47543 10.0001 9.47543C10.3069 9.47543 10.5557 9.22692 10.5557 8.91981V3.88887C10.5556 3.58176 10.3069 3.33325 10.0001 3.33325Z" fill="white"/>
</svg>
